<svg xmlns="http://www.w3.org/2000/svg" width="25" height="10" version="1.1" viewBox="0 0 25 10"><g id="Entry-Points" fill="none" fill-rule="evenodd" stroke="none" stroke-width="1" opacity=".8"><g id="Mobile-Recommender-Entry-Points-V2" fill="#9E9E9E" fill-rule="nonzero" transform="translate(-223 -332)"><g id="Group-8" transform="translate(0 290)"><g id="Group-9-Copy-2" transform="rotate(7 -233.522 1847.334)"><path id="Brand?" d="M2.792 6.256c.604 0 1.072-.146 1.403-.437.33-.292.496-.693.496-1.203 0-.334-.09-.62-.268-.862a1.319 1.319 0 0 0-.728-.49c.26-.112.466-.27.617-.474.15-.205.226-.44.226-.706 0-.5-.155-.877-.466-1.132C3.76.696 3.296.569 2.679.569H.819v5.687h1.973Zm-.09-3.261H1.57V1.186h1.109c.372 0 .65.071.832.213.182.142.273.369.273.682 0 .28-.098.503-.295.667-.196.165-.459.247-.787.247Zm.106 2.648H1.57V3.596h1.25c.744 0 1.117.343 1.117 1.027 0 .318-.101.568-.303.749-.202.18-.477.271-.826.271Zm3.601.613v-3c.17-.403.491-.605.965-.605.128 0 .246.009.356.027v-.672a.738.738 0 0 0-.32-.054c-.435 0-.771.188-1.008.566L6.39 2.03h-.703v4.226h.722Zm3.133.078c.466 0 .867-.174 1.203-.523.026.214.06.362.102.445h.758v-.062c-.1-.23-.149-.538-.149-.926V3.323c-.01-.427-.153-.763-.43-1.006-.275-.244-.657-.365-1.144-.365-.307 0-.59.057-.846.171-.256.115-.46.27-.609.467a.997.997 0 0 0-.225.612h.727c0-.185.087-.343.262-.473.174-.13.39-.195.648-.195.294 0 .517.075.668.224.151.15.227.351.227.604v.332h-.704c-.606 0-1.077.122-1.412.365-.334.244-.502.585-.502 1.025 0 .362.134.661.4.897.268.236.61.353 1.026.353Zm.106-.628a.87.87 0 0 1-.582-.192c-.151-.127-.227-.305-.227-.531 0-.518.443-.777 1.328-.777h.567v.867c-.092.187-.239.34-.442.457a1.27 1.27 0 0 1-.644.176Zm3.664.55V3.245c.099-.204.237-.368.414-.493s.383-.187.617-.187c.29 0 .502.073.639.219.136.145.206.37.209.675v2.797h.722V3.463c-.008-1.007-.458-1.511-1.351-1.511-.521 0-.943.203-1.266.609l-.023-.531h-.684v4.226h.723Zm5.176.078c.515 0 .917-.177 1.207-.53l.035.452h.664v-6h-.723V2.46c-.289-.338-.68-.507-1.176-.507-.497 0-.9.197-1.207.591-.307.395-.46.916-.46 1.565v.055c0 .645.154 1.169.462 1.57.309.4.708.601 1.198.601Zm.18-.613a.96.96 0 0 1-.821-.406c-.198-.27-.297-.646-.297-1.125 0-.537.099-.942.297-1.215.198-.273.474-.41.828-.41.448 0 .78.2.996.598v1.941c-.21.411-.545.617-1.004.617Zm4.417-1.066c0-.396.095-.7.285-.91l.426-.422c.422-.443.633-.892.633-1.348 0-.46-.137-.824-.412-1.088-.275-.264-.658-.396-1.15-.396-.475 0-.86.13-1.155.388-.295.26-.446.6-.451 1.022h.723c0-.237.08-.426.242-.567.161-.14.375-.21.64-.21.274 0 .482.077.625.232.144.155.215.369.215.642 0 .284-.11.55-.328.797l-.512.528c-.2.218-.333.418-.398.597-.065.18-.1.425-.105.735h.722Zm-.328 1.644c.14 0 .247-.038.32-.115a.406.406 0 0 0 .11-.291.42.42 0 0 0-.11-.295c-.073-.08-.18-.119-.32-.119s-.247.04-.318.12a.424.424 0 0 0-.108.294.41.41 0 0 0 .108.291c.071.077.177.115.318.115Z"/></g></g></g></g></svg>