<svg xmlns="http://www.w3.org/2000/svg" width="38" height="21" version="1.1" viewBox="0 0 38 21"><g id="Entry-Points" fill="none" fill-rule="evenodd" stroke="none" stroke-width="1" opacity=".8"><g id="Mobile-Recommender-Entry-Points-V2" fill="#9E9E9E" fill-rule="nonzero" transform="translate(-228 -296)"><g id="Group-8" transform="translate(0 290)"><g id="Group-9" transform="rotate(9 119 1466.154)"><path id="Budget?" d="M3.238 17.433c.83 0 1.473-.2 1.928-.602.455-.4.682-.952.682-1.654 0-.458-.123-.853-.368-1.184a1.814 1.814 0 0 0-1.002-.674 2.02 2.02 0 0 0 .849-.653c.208-.281.311-.604.311-.97 0-.687-.214-1.206-.641-1.557-.428-.35-1.067-.526-1.915-.526H.525v7.82h2.713Zm-.124-4.485H1.556v-2.487h1.526c.512 0 .893.098 1.144.293.25.195.376.508.376.937 0 .387-.135.693-.406.919-.27.225-.63.338-1.082.338Zm.145 3.642H1.556v-2.815h1.72c1.023 0 1.535.471 1.535 1.413 0 .437-.138.78-.416 1.028-.277.25-.656.374-1.136.374Zm5.844.95c.748 0 1.316-.227 1.702-.682l.022.575h.945v-5.812h-.993v4.227c-.251.566-.756.85-1.515.85-.716 0-1.074-.441-1.074-1.322V11.62h-.994v3.782c.004.705.167 1.238.492 1.598.324.36.795.54 1.415.54Zm6.22 0c.709 0 1.262-.243 1.66-.73l.048.623h.913v-8.25h-.994v3.03c-.397-.466-.936-.699-1.617-.699-.684 0-1.237.271-1.66.814-.422.542-.633 1.26-.633 2.15v.076c0 .888.212 1.608.636 2.16.425.55.973.826 1.647.826Zm.247-.843c-.48 0-.856-.186-1.128-.558-.272-.373-.409-.889-.409-1.547 0-.738.137-1.295.409-1.67.272-.377.651-.565 1.138-.565.616 0 1.073.274 1.37.822v2.67c-.29.565-.75.848-1.38.848Zm6.123 3.024c.752 0 1.35-.217 1.796-.65.446-.433.669-1.026.669-1.778v-5.672h-.908l-.048.645c-.398-.501-.95-.752-1.66-.752-.69 0-1.246.268-1.665.803-.419.535-.628 1.256-.628 2.162 0 .945.21 1.692.63 2.24.422.547.972.821 1.653.821.687 0 1.23-.229 1.627-.687v.5c0 .494-.135.877-.406 1.149-.27.272-.647.408-1.13.408-.616 0-1.137-.263-1.563-.79l-.516.597c.211.311.518.556.919.735.4.18.81.269 1.23.269Zm.086-3.024c-.484 0-.86-.187-1.128-.561-.269-.374-.403-.89-.403-1.544 0-.738.136-1.295.408-1.67.272-.377.65-.565 1.133-.565.609 0 1.066.278 1.37.833v2.653c-.294.57-.754.854-1.38.854Zm6.29.843c.973 0 1.704-.374 2.19-1.122l-.606-.473a2.24 2.24 0 0 1-.64.57c-.243.143-.54.214-.891.214-.494 0-.902-.176-1.222-.529-.32-.352-.488-.815-.502-1.388h3.937v-.414c0-.927-.21-1.64-.629-2.137-.419-.498-1.006-.747-1.761-.747-.462 0-.891.128-1.287.384-.395.256-.703.61-.924 1.064-.22.452-.33.967-.33 1.544v.182c0 .867.247 1.559.741 2.076.494.518 1.135.776 1.923.776Zm1.272-3.545H26.43c.064-.526.233-.935.505-1.227a1.325 1.325 0 0 1 1.01-.438c.415 0 .744.14.988.417.243.277.38.668.408 1.173v.075Zm3.84 3.545c.247 0 .502-.035.763-.107v-.806c-.2.043-.358.065-.473.065-.232 0-.397-.058-.494-.175-.096-.116-.145-.29-.145-.524V12.39h1.085v-.768h-1.085v-1.407h-.993v1.407H30.78v.768h1.058v3.604c0 .495.112.876.338 1.145.226.268.56.402 1.004.402Zm4.056-2.31c0-.543.13-.96.392-1.25l.585-.58c.58-.61.87-1.227.87-1.854 0-.634-.189-1.132-.566-1.496-.378-.363-.905-.545-1.582-.545-.652 0-1.18.178-1.587.535-.407.356-.614.824-.62 1.404h.993c0-.326.11-.585.333-.779.222-.193.516-.29.88-.29.377 0 .663.107.86.32.197.213.296.507.296.883 0 .39-.15.756-.452 1.096l-.703.725c-.276.301-.459.575-.548.822-.09.247-.138.584-.145 1.01h.994Zm-.452 2.262c.194 0 .34-.053.44-.158.101-.106.151-.24.151-.4a.577.577 0 0 0-.15-.406c-.1-.11-.247-.164-.44-.164-.194 0-.34.055-.438.164a.583.583 0 0 0-.148.405c0 .162.05.295.148.4.098.106.244.159.437.159Z" transform="rotate(-29 19.805 14.452)"/></g></g></g></g></svg>