<svg xmlns="http://www.w3.org/2000/svg" width="40" height="25" version="1.1" viewBox="0 0 40 25"><g id="Entry-Points" fill="none" fill-rule="evenodd" stroke="none" stroke-width="1" opacity=".8"><g id="Mobile-Recommender-Entry-Points-V2" fill="#9E9E9E" fill-rule="nonzero" transform="translate(-316 -327)"><path id="Feature?" d="M316.939 344v-3.454h3.282v-.843h-3.282v-2.675h3.813v-.848h-4.844V344h1.031Zm7.192.107c.974 0 1.704-.374 2.191-1.122l-.607-.473a2.24 2.24 0 0 1-.639.57c-.243.143-.54.214-.891.214-.495 0-.902-.176-1.222-.529-.32-.352-.488-.815-.503-1.388h3.937v-.414c0-.927-.209-1.64-.628-2.137-.419-.498-1.006-.747-1.762-.747-.462 0-.89.128-1.286.384s-.704.61-.924 1.064c-.22.453-.33.967-.33 1.544v.182c0 .867.247 1.559.741 2.076.494.518 1.135.776 1.923.776Zm1.273-3.545h-2.911c.064-.526.232-.935.505-1.227a1.325 1.325 0 0 1 1.01-.438c.415 0 .744.14.988.417.243.277.38.668.408 1.173v.075Zm3.937 3.545c.64 0 1.192-.24 1.654-.72.036.294.082.498.14.613h1.042v-.086c-.136-.315-.204-.74-.204-1.273v-2.675c-.015-.587-.212-1.048-.591-1.383-.38-.335-.904-.502-1.574-.502-.422 0-.81.079-1.163.236a2.108 2.108 0 0 0-.838.642c-.206.27-.308.55-.308.84h.999c0-.253.12-.47.36-.65.24-.178.537-.268.891-.268.405 0 .71.103.918.31.208.205.312.482.312.829v.457h-.967c-.834 0-1.481.167-1.941.502-.46.335-.69.805-.69 1.41 0 .497.183.908.55 1.232.367.324.837.486 1.41.486Zm.145-.864c-.326 0-.593-.088-.8-.264-.208-.175-.312-.418-.312-.73 0-.713.609-1.069 1.826-1.069h.779v1.193a1.462 1.462 0 0 1-.607.628c-.28.161-.575.242-.886.242Zm5.742.864c.247 0 .5-.035.762-.107v-.806c-.2.043-.358.065-.472.065-.233 0-.398-.058-.495-.175-.096-.116-.145-.29-.145-.523v-3.604h1.085v-.769h-1.085v-1.407h-.993v1.407h-1.058v.769h1.058v3.604c0 .494.113.875.338 1.144.226.268.56.402 1.005.402Zm3.78 0c.75 0 1.317-.227 1.703-.682l.022.575h.945v-5.812h-.993v4.228c-.251.565-.756.848-1.515.848-.716 0-1.074-.44-1.074-1.321v-3.755h-.994v3.782c.004.705.167 1.238.492 1.598.324.36.795.54 1.415.54Zm5.173-.107v-4.125c.233-.555.675-.833 1.327-.833.175 0 .338.013.489.038v-.924c-.1-.05-.247-.075-.44-.075-.599 0-1.06.26-1.387.779l-.016-.672h-.966V344h.993Zm5.038.107c.974 0 1.705-.374 2.192-1.122l-.607-.473a2.24 2.24 0 0 1-.64.57c-.243.143-.54.214-.891.214-.494 0-.901-.176-1.222-.529-.32-.352-.488-.815-.502-1.388h3.937v-.414c0-.927-.21-1.64-.629-2.137-.419-.498-1.006-.747-1.761-.747-.462 0-.891.128-1.287.384-.395.256-.703.61-.924 1.064-.22.453-.33.967-.33 1.544v.182c0 .867.247 1.559.741 2.076.495.518 1.135.776 1.923.776Zm1.273-3.545h-2.91c.064-.526.232-.935.504-1.227a1.325 1.325 0 0 1 1.01-.438c.415 0 .744.14.988.417.243.277.38.668.408 1.173v.075Zm4.302 1.236c0-.544.131-.962.393-1.252l.585-.58c.58-.608.87-1.226.87-1.853 0-.634-.189-1.132-.567-1.496-.377-.363-.905-.545-1.581-.545-.652 0-1.181.178-1.588.535-.406.356-.613.824-.62 1.404h.994c0-.326.11-.585.333-.779.222-.193.515-.29.88-.29.377 0 .663.107.86.32.197.213.295.508.295.884 0 .39-.15.755-.45 1.095l-.704.725c-.276.301-.459.575-.548.822-.09.247-.138.584-.145 1.01h.993Zm-.45 2.261c.193 0 .34-.053.44-.158.1-.106.15-.24.15-.4a.577.577 0 0 0-.15-.406c-.1-.11-.247-.164-.44-.164-.194 0-.34.055-.438.164a.583.583 0 0 0-.148.405c0 .162.049.295.148.4.098.106.244.16.437.16Z" transform="rotate(27 336.275 340.09)"/></g></g></svg>