<svg xmlns="http://www.w3.org/2000/svg" width="14" height="13" version="1.1" viewBox="0 0 14 13"><g id="Entry-Points" fill="none" fill-rule="evenodd" stroke="none" stroke-width="1" opacity=".8"><g id="Mobile-Recommender-Entry-Points-V2" fill="#9E9E9E" fill-rule="nonzero" transform="translate(-264 -325)"><path id="??" d="m268.42 333.594.026-.388c.047-.414.23-.776.552-1.085l.515-.489c.402-.39.683-.744.844-1.063.16-.32.241-.66.241-1.019 0-.791-.248-1.404-.743-1.838-.495-.433-1.19-.65-2.088-.65-.889 0-1.59.228-2.104.685-.514.457-.776 1.09-.784 1.898h1.84c.009-.338.107-.604.296-.796.188-.193.439-.29.752-.29.66 0 .99.358.99 1.074 0 .237-.063.462-.19.676-.127.213-.382.49-.765.831-.383.34-.647.687-.79 1.038-.144.351-.216.823-.216 1.416h1.625Zm-.78 2.913c.309 0 .558-.09.746-.273a.921.921 0 0 0 .282-.692.929.929 0 0 0-.289-.701c-.192-.184-.439-.276-.739-.276s-.547.092-.74.276a.929.929 0 0 0-.288.701c0 .28.094.51.282.692.188.182.437.273.746.273Zm8.249-2.913.025-.388c.047-.414.231-.776.553-1.085l.514-.489c.402-.39.683-.744.844-1.063.16-.32.241-.66.241-1.019 0-.791-.247-1.404-.742-1.838-.496-.433-1.192-.65-2.089-.65-.888 0-1.59.228-2.104.685-.514.457-.776 1.09-.784 1.898h1.84c.01-.338.108-.604.296-.796.188-.193.439-.29.752-.29.66 0 .99.358.99 1.074 0 .237-.063.462-.19.676-.127.213-.382.49-.765.831-.383.34-.646.687-.79 1.038-.144.351-.216.823-.216 1.416h1.625Zm-.78 2.913c.308 0 .557-.09.745-.273a.921.921 0 0 0 .283-.692.929.929 0 0 0-.29-.701c-.192-.184-.438-.276-.739-.276-.3 0-.547.092-.74.276a.929.929 0 0 0-.288.701c0 .28.094.51.282.692.189.182.437.273.746.273Z" transform="rotate(-18 271.472 331.784)"/></g></g></svg>