<svg xmlns="http://www.w3.org/2000/svg" width="159" height="18" version="1.1" viewBox="0 0 159 18"><g id="Entry-Points" fill="none" fill-rule="evenodd" stroke="none" stroke-width="1"><g id="Desktop-Recommender-Entry-Points" transform="translate(-454 -676)"><g id="Group-8" transform="translate(90 620)"><g id="Group-10" transform="translate(364 56)"><g id="Group-3"><g id="Group-2"><g id="CarDekho-Logo"><g id="cdshape" fill="#F75D34"><path id="Path" d="M17.966 8.876a8.977 8.977 0 0 1-7.419 8.839l-.973-5.528a3.368 3.368 0 0 0 0-6.634l.973-5.528c4.215.748 7.42 4.429 7.42 8.851ZM8.405 12.193l-.974 5.528C3.216 16.98.013 13.305.013 8.883A8.977 8.977 0 0 1 7.43.044l.974 5.528a3.374 3.374 0 0 0-2.783 3.317 3.376 3.376 0 0 0 2.783 3.304Z"/></g><g id="name" fill="#000" transform="translate(21.778 4.444)"><path id="c" d="M.276 4.56C.276 2.022 2.161.081 4.761.081c1.565 0 2.94.78 3.694 1.998l-1.702.986C6.37 2.4 5.635 2.004 4.76 2.004c-1.526 0-2.512 1.023-2.512 2.563 0 1.539.986 2.563 2.512 2.563.874 0 1.628-.396 1.992-1.062l1.702.986c-.741 1.219-2.117 1.998-3.694 1.998C2.161 9.046.276 7.098.276 4.56Z"/><path id="a" fill-rule="nonzero" d="M15.541 2.324v6.734h-1.91v-.785c-.42.484-1.042.779-1.897.779-1.664 0-3.04-1.464-3.04-3.361 0-1.897 1.376-3.36 3.04-3.36.855 0 1.477.294 1.898.778V2.33h1.91v-.006Zm-1.91 3.36c0-.954-.634-1.55-1.513-1.55-.88 0-1.514.596-1.514 1.55 0 .956.634 1.552 1.514 1.552s1.514-.596 1.514-1.551Z"/><path id="r" d="M19.87 2.324v2.18c-.798-.126-1.93.194-1.93 1.463v3.085h-1.928V2.324h1.935v1.269c.258-.86 1.118-1.27 1.922-1.27Z"/><path id="d" fill-rule="nonzero" d="M28.3 4.567c0 2.537-1.885 4.485-4.36 4.485h-3.593V.082h3.593c2.475 0 4.36 1.947 4.36 4.485Zm-1.973 0c0-1.54-.973-2.513-2.387-2.513h-1.539v5.025h1.54c1.406 0 2.386-.973 2.386-2.512Z"/><path id="e" fill-rule="nonzero" d="M32.088 7.337c.521 0 .967-.201 1.225-.484l1.526.88c-.622.867-1.564 1.313-2.776 1.313-2.174 0-3.525-1.464-3.525-3.361 0-1.897 1.376-3.361 3.386-3.361 1.86 0 3.236 1.438 3.236 3.36 0 .27-.026.522-.076.767h-4.516c.232.66.822.886 1.52.886Zm1.174-2.318c-.2-.735-.778-1.005-1.35-1.005-.723 0-1.213.358-1.388 1.005h2.738Z"/><path id="k" d="m39.45 9.058-1.972-2.72v2.72H35.63V.081h1.847V5.02l1.847-2.695h2.154l-2.242 3.26 2.299 3.468H39.45z"/><path id="h" d="M47.93 4.874v4.184h-1.846V5.144c0-.766-.478-1.118-1.068-1.118-.679 0-1.143.396-1.143 1.27v3.762h-1.847V.081h1.847v2.997c.333-.459.948-.754 1.759-.754 1.243 0 2.299.886 2.299 2.55Z"/><path id="o" fill-rule="nonzero" d="M48.408 5.685c0-1.897 1.502-3.361 3.374-3.361s3.373 1.464 3.373 3.36c0 1.898-1.501 3.362-3.373 3.362-1.872 0-3.374-1.464-3.374-3.361Zm4.837 0c0-.905-.634-1.502-1.463-1.502-.83 0-1.464.597-1.464 1.502 0 .904.634 1.501 1.464 1.501.829 0 1.463-.597 1.463-1.501Z"/></g></g></g><path id="Recommender" fill="#000" fill-rule="nonzero" d="M82.75 12.6V9.313h1.652l1.71 3.287h1.589v-.076l-1.916-3.557c.492-.207.876-.503 1.151-.888.276-.384.413-.862.413-1.432 0-.836-.267-1.475-.803-1.916-.535-.442-1.294-.662-2.279-.662h-3V12.6h1.483Zm1.523-4.477H82.75V5.264h1.564c.516.008.903.137 1.163.387s.39.603.39 1.06c0 .438-.14.783-.422 1.035-.281.251-.672.377-1.172.377Zm7.137 4.594c.527 0 1.003-.104 1.427-.313a2.563 2.563 0 0 0 1.016-.882l-.767-.733c-.41.528-.942.791-1.594.791-.465 0-.85-.152-1.157-.457-.307-.304-.482-.718-.525-1.242h4.143v-.574c0-1.008-.236-1.787-.706-2.338-.471-.55-1.138-.826-2.001-.826-.543 0-1.035.139-1.477.416a2.787 2.787 0 0 0-1.028 1.163c-.244.498-.366 1.064-.366 1.696v.176c0 .945.28 1.702.84 2.27.561.569 1.292.853 2.195.853Zm1.136-3.879h-2.712c.066-.488.22-.869.46-1.142.24-.274.555-.41.946-.41.394 0 .703.122.926.366.222.244.35.604.38 1.08v.106Zm5.133 3.88c.457 0 .883-.1 1.278-.3.394-.199.707-.47.937-.811.23-.342.354-.71.37-1.105H98.92a1.06 1.06 0 0 1-.375.768c-.234.207-.529.31-.884.31-.469 0-.827-.168-1.075-.506-.249-.338-.373-.851-.373-1.538v-.229c.004-.68.131-1.186.381-1.52.25-.334.606-.501 1.067-.501.36 0 .655.117.887.351.233.234.357.533.372.897h1.342c-.023-.715-.272-1.292-.747-1.732-.474-.44-1.089-.659-1.843-.659-.89 0-1.593.29-2.109.87-.516.58-.773 1.353-.773 2.317v.147c0 1.012.26 1.805.779 2.379.52.574 1.223.861 2.11.861Zm6.346 0c.586 0 1.103-.136 1.55-.405.447-.27.79-.65 1.031-1.143.24-.492.36-1.05.36-1.675l-.005-.334c-.043-.91-.332-1.641-.865-2.192-.533-.55-1.227-.826-2.083-.826-.578 0-1.09.134-1.535.401-.445.268-.79.65-1.037 1.149a3.738 3.738 0 0 0-.37 1.678v.07c0 .993.27 1.787.807 2.383.537.595 1.252.893 2.147.893Zm0-1.138c-.48 0-.855-.184-1.125-.553-.27-.37-.404-.88-.404-1.532 0-.735.136-1.287.41-1.656.273-.369.642-.553 1.107-.553.473 0 .847.187 1.122.562.276.375.413.883.413 1.523 0 .723-.133 1.272-.4 1.647-.269.375-.643.562-1.123.562Zm5.566 1.02V8.006c.239-.465.643-.697 1.213-.697.742 0 1.123.373 1.143 1.12V12.6h1.424l-.006-4.348c.082-.28.225-.508.43-.682.206-.174.47-.261.794-.261.407 0 .698.094.874.281.175.188.263.483.263.885V12.6h1.424V8.434c-.008-.754-.183-1.324-.524-1.711-.342-.387-.863-.58-1.562-.58-.836 0-1.484.324-1.945.973-.313-.649-.893-.973-1.74-.973-.774 0-1.383.26-1.829.78l-.04-.663h-1.342v6.34h1.423Zm10.442 0V8.006c.238-.465.642-.697 1.213-.697.742 0 1.123.373 1.142 1.12V12.6h1.424l-.006-4.348c.082-.28.226-.508.43-.682.206-.174.47-.261.795-.261.406 0 .697.094.873.281.176.188.264.483.264.885V12.6h1.423V8.434c-.007-.754-.182-1.324-.524-1.711s-.862-.58-1.562-.58c-.835 0-1.484.324-1.945.973-.312-.649-.892-.973-1.74-.973-.774 0-1.383.26-1.828.78l-.041-.663h-1.342v6.34h1.424Zm11.812.117c.528 0 1.003-.104 1.427-.313a2.563 2.563 0 0 0 1.017-.882l-.768-.733c-.41.528-.941.791-1.594.791-.464 0-.85-.152-1.157-.457-.307-.304-.481-.718-.524-1.242h4.142v-.574c0-1.008-.235-1.787-.706-2.338-.47-.55-1.137-.826-2-.826-.544 0-1.036.139-1.477.416a2.787 2.787 0 0 0-1.029 1.163c-.244.498-.366 1.064-.366 1.696v.176c0 .945.28 1.702.841 2.27.56.569 1.292.853 2.194.853Zm1.137-3.879h-2.713c.067-.488.22-.869.46-1.142.24-.274.556-.41.946-.41.395 0 .704.122.926.366.223.244.35.604.381 1.08v.106Zm3.914 3.762V8.088c.281-.52.71-.779 1.283-.779.395 0 .679.097.853.29.174.193.26.491.26.894V12.6h1.424V8.41c-.023-1.511-.695-2.267-2.015-2.267-.762 0-1.377.283-1.846.85l-.04-.733h-1.343v6.34h1.424Zm7.494.117c.711 0 1.28-.258 1.705-.773l.07.656h1.29v-9h-1.424v3.246c-.414-.469-.957-.703-1.629-.703-.762 0-1.37.296-1.822.888-.453.591-.68 1.376-.68 2.352 0 1.028.23 1.84.688 2.438.46.597 1.06.896 1.802.896Zm.364-1.16c-.458 0-.81-.18-1.058-.542-.248-.361-.372-.864-.372-1.509 0-.734.125-1.284.375-1.65.25-.364.605-.547 1.066-.547.582 0 1.004.254 1.266.762v2.707c-.27.52-.695.779-1.277.779Zm6.978 1.16c.527 0 1.003-.104 1.427-.313a2.563 2.563 0 0 0 1.016-.882l-.767-.733c-.41.528-.942.791-1.594.791-.465 0-.85-.152-1.157-.457-.307-.304-.482-.718-.525-1.242h4.143v-.574c0-1.008-.235-1.787-.706-2.338-.47-.55-1.138-.826-2.001-.826-.543 0-1.035.139-1.477.416a2.787 2.787 0 0 0-1.028 1.163c-.244.498-.366 1.064-.366 1.696v.176c0 .945.28 1.702.84 2.27.561.569 1.293.853 2.195.853Zm1.137-3.879h-2.713c.066-.488.22-.869.46-1.142.24-.274.555-.41.946-.41.395 0 .703.122.926.366.223.244.35.604.38 1.08v.106ZM156.8 12.6V8.264c.227-.5.666-.75 1.319-.75.199 0 .392.016.58.047l.006-1.336a1.333 1.333 0 0 0-.504-.082c-.61 0-1.086.275-1.43.826l-.035-.709h-1.36v6.34h1.424Z"/></g></g></g></g></g></svg>